<svg xmlns="http://www.w3.org/2000/svg" width="20" height="18" viewBox="0 0 20 18">
    <g fill="none" fill-rule="evenodd">
        <g fill="#FFF">
            <g>
                <g>
                    <path d="M19.5 10c-.552 0-1 .448-1 1v1h-4.8c-.8 0-1.6.5-1.9 1.4L10 19v8c0 .6.4 1 1 1h2.4c.4 0 .7-.2.9-.6L15 26h10l.7 1.4c.2.3.5.6.9.6H29c.6 0 1-.4 1-1v-8c0-.1-1.8-5.6-1.8-5.6-.3-.8-1-1.4-1.9-1.4h-4.8v-1c0-.552-.448-1-1-1h-1zm6.8 4H13.7l-1.3 4h15.2l-1.3-4zM13 23h2c.6 0 1-.4 1-1s-.4-1-1-1h-2c-.6 0-1 .4-1 1s.4 1 1 1zm12 0h2c.6 0 1-.4 1-1s-.4-1-1-1h-2c-.6 0-1 .4-1 1s.4 1 1 1z" transform="translate(-440.000000, -931.000000) translate(0.000000, 77.000000) translate(430.000000, 844.000000)"/>
                </g>
            </g>
        </g>
    </g>
</svg>
