<svg width="17" height="20" viewBox="0 0 17 20" fill="none" xmlns="http://www.w3.org/2000/svg">
<path d="M12.833 2.50001V4.16701C14.25 4.16701 15.333 5.25001 15.333 6.66701V15C15.333 15.5 15 15.833 14.5 15.833C14 15.833 13.667 15.5 13.667 15V10C13.667 8.58301 12.583 7.50001 11.167 7.50001H10.333V3.33301C10.333 1.91701 9.25001 0.833008 7.83301 0.833008H2.83301C1.41701 0.833008 0.333008 1.91701 0.333008 3.33301V18.333C0.333008 18.833 0.667007 19.167 1.16701 19.167H9.50001C10 19.167 10.333 18.833 10.333 18.333V9.16701H11.167C11.667 9.16701 12 9.50001 12 10V15C12 16.417 13.083 17.5 14.5 17.5C15.917 17.5 17 16.417 17 15V6.66701C17 4.33301 15.167 2.50001 12.833 2.50001ZM8.66701 8.33301H2.00001V4.16701H8.66701V8.33301V8.33301Z" fill="#242A46"/>
</svg>
