<svg xmlns="http://www.w3.org/2000/svg" width="28" height="25" viewBox="0 0 28 25">
    <g fill="none" fill-rule="evenodd">
        <g fill="#FFF">
            <g>
                <g>
                    <g>
                        <path d="M21.43 8.368c0 .756-.612 1.368-1.368 1.368-.755 0-1.368-.612-1.368-1.368 0-.755.613-1.368 1.368-1.368.756 0 1.368.613 1.368 1.368zm-6.592 14.055l-1.24 7.065c-.215-.142-.473-.224-.75-.224-.755 0-1.368.612-1.368 1.368 0 .755.613 1.368 1.368 1.368.756 0 1.368-.613 1.368-1.368 0-.47-.237-.886-.598-1.132l6.444-3.346 6.32 3.346c-.361.246-.599.661-.599 1.132 0 .755.613 1.368 1.369 1.368.755 0 1.368-.613 1.368-1.368 0-.756-.613-1.368-1.368-1.368-.277 0-.536.082-.751.224l-1.24-7.065 5.224-5.1-7.213-.995-3.11-6.467-3.234 6.467-7.214.995 5.224 5.1zm16.916-4.105c.755 0 1.368-.612 1.368-1.368 0-.755-.613-1.368-1.368-1.368-.756 0-1.368.613-1.368 1.368 0 .756.612 1.368 1.368 1.368zM9.614 16.95c0 .756-.612 1.368-1.368 1.368-.755 0-1.368-.612-1.368-1.368 0-.755.613-1.368 1.368-1.368.756 0 1.368.613 1.368 1.368z" transform="translate(-540.000000, -682.000000) translate(0.000000, 77.000000) translate(474.000000, 546.000000) translate(60.000000, 52.000000)"/>
                    </g>
                </g>
            </g>
        </g>
    </g>
</svg>
